# xmcd CD database file
#
# Track frame offsets:
#	150
#	22848
#	25041
#	44597
#	68012
#	102923
#	123908
#	129265
#	158899
#	196559
#	200311
#	222425
#	246401
#
# Disc length: 3581 seconds
#
# Revision: 1
# Processed by: cddbd v1.5.1PL0 Copyright (c) Steve Scherf et al.
# Submitted via: CDex 1.51
#
DISCID=a80dfb0d
DTITLE=The Fujii - We Pray the Brooze
DYEAR=2003
DGENRE=Blues
TTITLE0=Sundown
TTITLE1=Tom
TTITLE2=After the Flowting(ある日の風に吹かれて)
TTITLE3=Como
TTITLE4=Delta
TTITLE5=Innerself（夢の中で泣いていた）
TTITLE6=Aero
TTITLE7=Listen the Sound of the Creek（小川のせせらぎ...）
TTITLE8=Under the Dry(乾いた空の下)
TTITLE9=Black Sheep
TTITLE10=Searching（さがしもの）
TTITLE11=Tonbo（とんぼつり）
TTITLE12=Paper Balloon
EXTD=YEAR: 2003
EXTT0=
EXTT1=
EXTT2=
EXTT3=
EXTT4=
EXTT5=
EXTT6=
EXTT7=
EXTT8=
EXTT9=
EXTT10=
EXTT11=
EXTT12=
PLAYORDER=
